# xmcd CD database file
#
# Track frame offsets:
#	150
#	20026
#	47688
#	77391
#	91849
#	111526
#	133782
#	152624
#	162924
#	175021
#	188408
#	204700
#	220778
#	232667
#	252216
#	268875
#
# Disc length: 3801 seconds
#
# Revision: 0
# Processed by: cddbd v1.5.2PL0 Copyright (c) Steve Scherf et al.
# Submitted via: CDex 1.70beta2
#
DISCID=cd0ed710
DTITLE=Mel Brown  - The Wizard (1968) and Blues For We (1969)
DYEAR=2011
DGENRE=Blues
TTITLE0=Ode To Billie Joe (Bobbie Gentry)
TTITLE1=Swamp Fever (Mel Brown)
TTITLE2=Blues After Hours (Crayton-Taub)
TTITLE3=African Sweets (Dee Ervin)
TTITLE4=Stop (Ragavoy-Shuman)
TTITLE5=Chunk A funk (Mel Brown)
TTITLE6=Miss Ann (Mel Brown)
TTITLE7=W-2 Witholding (Mel Brown)
TTITLE8=Twist And Shout (P.Medley-B.Russell)
TTITLE9=Blues For We (Jules Chaikin-Max Hardy)
TTITLE10=Ob-La-Di Ob-La-Da (Lennon-McCartney)
TTITLE11=Son Of A Preacher Man (Hurley-Wilkins)
TTITLE12=Set Me Free (Claude Putman Jr)
TTITLE13=Freaky Zeke (Tom Scott)
TTITLE14=Indiaa Giver (Bloom-Gentry-Cordell)
TTITLE15=Stranger On The Shore (Acker Bilk-Robert Mellin)
EXTD=YEAR: 2011
EXTT0=
EXTT1=
EXTT2=
EXTT3=
EXTT4=
EXTT5=
EXTT6=
EXTT7=
EXTT8=
EXTT9=
EXTT10=
EXTT11=
EXTT12=
EXTT13=
EXTT14=
EXTT15=
PLAYORDER=
